# xmcd CD database file
#
# Track frame offsets:
#	150
#	10638
#	20188
#	30698
#	45663
#	58595
#	72545
#	86518
#	98335
#	130678
#	146008
#	164293
#	192608
#	203403
#	213168
#	230730
#	242733
#	251938
#	261158
#	272298
#	282203
#	294048
#
# Disc length: 4078 seconds
#
# Revision: 0
# Processed by: cddbd v1.5.2PL0 Copyright (c) Steve Scherf et al.
# Submitted via: CDex 1.51
#
DISCID=390fec16
DTITLE=Buddy Guy - The Complete Chess Studio Recordings [CD1]
DYEAR=1997
DGENRE=Jazz
TTITLE0=First Time I Met The Blues
TTITLE1=Slop Around
TTITLE2=I Got My Eyes On You
TTITLE3=Broken Hearted Blues
TTITLE4=Let Me Love You Baby
TTITLE5=I Got A Strange Feeling
TTITLE6=Gully Gully
TTITLE7=Ten Years Ago
TTITLE8=Watch Yourself
TTITLE9=Stone Crazy
TTITLE10=Skippin'
TTITLE11=I Found A True Love
TTITLE12=Hard But It's Fair
TTITLE13=Baby (Baby, Baby, Baby)
TTITLE14=When My Left Eye Jumps
TTITLE15=That's It
TTITLE16=The Treasure Untold
TTITLE17=American Bandstand (a.k.a. American Bandstand Thing)
TTITLE18=No Lie
TTITLE19=$100 Bill
TTITLE20=My Love Is Real
TTITLE21=Buddy's Boogie
EXTD=YEAR: 1997
EXTT0=
EXTT1=
EXTT2=
EXTT3=
EXTT4=
EXTT5=
EXTT6=
EXTT7=
EXTT8=
EXTT9=
EXTT10=
EXTT11=
EXTT12=
EXTT13=
EXTT14=
EXTT15=
EXTT16=
EXTT17=
EXTT18=
EXTT19=
EXTT20=
EXTT21=
PLAYORDER=
